<mxfile host="app.diagrams.net" modified="2023-06-15T14:16:06.381Z" agent="Mozilla/5.0 (Macintosh; Intel Mac OS X 10_15_7) AppleWebKit/537.36 (KHTML, like Gecko) Chrome/114.0.0.0 Safari/537.36" etag="2tGmlEFlwTrO7s00Jdzb" version="21.2.3" type="github">
  <diagram id="prtHgNgQTEPvFCAcTncT" name="Page-1">
    <mxGraphModel dx="1866" dy="1173" grid="1" gridSize="10" guides="1" tooltips="1" connect="1" arrows="1" fold="1" page="1" pageScale="1" pageWidth="827" pageHeight="1169" math="0" shadow="0">
      <root>
        <mxCell id="0" />
        <mxCell id="1" parent="0" />
        <mxCell id="te-CPbT5JowZCKMu-uI0-2" value="@plato/babel-preset-taro" style="swimlane;childLayout=stackLayout;horizontal=1;startSize=30;horizontalStack=0;rounded=1;fontSize=14;fontStyle=0;strokeWidth=2;resizeParent=0;resizeLast=1;shadow=0;dashed=0;align=center;arcSize=4;whiteSpace=wrap;html=1;fillColor=#A9C4EB;" vertex="1" parent="1">
          <mxGeometry x="480" y="270" width="250" height="80" as="geometry" />
        </mxCell>
        <mxCell id="te-CPbT5JowZCKMu-uI0-3" value="&lt;div style=&quot;&quot;&gt;&lt;span style=&quot;background-color: initial; font-size: 14px;&quot;&gt;babel配置预设&lt;/span&gt;&lt;/div&gt;" style="align=center;strokeColor=none;fillColor=none;spacingLeft=4;fontSize=12;verticalAlign=middle;resizable=0;rotatable=0;part=1;html=1;" vertex="1" parent="te-CPbT5JowZCKMu-uI0-2">
          <mxGeometry y="30" width="250" height="50" as="geometry" />
        </mxCell>
        <mxCell id="te-CPbT5JowZCKMu-uI0-8" value="@plato/eslint-config-taro" style="swimlane;childLayout=stackLayout;horizontal=1;startSize=30;horizontalStack=0;rounded=1;fontSize=14;fontStyle=0;strokeWidth=2;resizeParent=0;resizeLast=1;shadow=0;dashed=0;align=center;arcSize=4;whiteSpace=wrap;html=1;fillColor=#A9C4EB;" vertex="1" parent="1">
          <mxGeometry x="760" y="270" width="250" height="80" as="geometry" />
        </mxCell>
        <mxCell id="te-CPbT5JowZCKMu-uI0-9" value="&lt;div style=&quot;&quot;&gt;&lt;span style=&quot;background-color: initial; font-size: 14px;&quot;&gt;eslint配置预设&lt;/span&gt;&lt;/div&gt;" style="align=center;strokeColor=none;fillColor=none;spacingLeft=4;fontSize=12;verticalAlign=middle;resizable=0;rotatable=0;part=1;html=1;" vertex="1" parent="te-CPbT5JowZCKMu-uI0-8">
          <mxGeometry y="30" width="250" height="50" as="geometry" />
        </mxCell>
        <mxCell id="te-CPbT5JowZCKMu-uI0-54" style="edgeStyle=orthogonalEdgeStyle;rounded=0;orthogonalLoop=1;jettySize=auto;html=1;exitX=0.5;exitY=0;exitDx=0;exitDy=0;entryX=0.5;entryY=1;entryDx=0;entryDy=0;" edge="1" parent="1" source="te-CPbT5JowZCKMu-uI0-10" target="te-CPbT5JowZCKMu-uI0-41">
          <mxGeometry relative="1" as="geometry" />
        </mxCell>
        <mxCell id="te-CPbT5JowZCKMu-uI0-55" style="edgeStyle=orthogonalEdgeStyle;rounded=0;orthogonalLoop=1;jettySize=auto;html=1;exitX=0.5;exitY=0;exitDx=0;exitDy=0;" edge="1" parent="1" source="te-CPbT5JowZCKMu-uI0-10" target="te-CPbT5JowZCKMu-uI0-43">
          <mxGeometry relative="1" as="geometry" />
        </mxCell>
        <mxCell id="te-CPbT5JowZCKMu-uI0-56" style="edgeStyle=orthogonalEdgeStyle;rounded=0;orthogonalLoop=1;jettySize=auto;html=1;exitX=0.5;exitY=0;exitDx=0;exitDy=0;" edge="1" parent="1" source="te-CPbT5JowZCKMu-uI0-10" target="te-CPbT5JowZCKMu-uI0-49">
          <mxGeometry relative="1" as="geometry" />
        </mxCell>
        <mxCell id="te-CPbT5JowZCKMu-uI0-57" style="edgeStyle=orthogonalEdgeStyle;rounded=0;orthogonalLoop=1;jettySize=auto;html=1;exitX=0.5;exitY=0;exitDx=0;exitDy=0;" edge="1" parent="1" source="te-CPbT5JowZCKMu-uI0-10" target="te-CPbT5JowZCKMu-uI0-53">
          <mxGeometry relative="1" as="geometry" />
        </mxCell>
        <mxCell id="te-CPbT5JowZCKMu-uI0-10" value="@plato/taro-template" style="swimlane;childLayout=stackLayout;horizontal=1;startSize=30;horizontalStack=0;rounded=1;fontSize=14;fontStyle=0;strokeWidth=2;resizeParent=0;resizeLast=1;shadow=0;dashed=0;align=center;arcSize=4;whiteSpace=wrap;html=1;fillColor=#A9C4EB;" vertex="1" parent="1">
          <mxGeometry x="200" y="270" width="250" height="80" as="geometry" />
        </mxCell>
        <mxCell id="te-CPbT5JowZCKMu-uI0-11" value="&lt;div style=&quot;&quot;&gt;&lt;span style=&quot;background-color: initial; font-size: 14px;&quot;&gt;taro环境封装&lt;/span&gt;&lt;/div&gt;" style="align=center;strokeColor=none;fillColor=none;spacingLeft=4;fontSize=12;verticalAlign=middle;resizable=0;rotatable=0;part=1;html=1;" vertex="1" parent="te-CPbT5JowZCKMu-uI0-10">
          <mxGeometry y="30" width="250" height="50" as="geometry" />
        </mxCell>
        <mxCell id="te-CPbT5JowZCKMu-uI0-12" value="@plato/create-taro-app" style="swimlane;childLayout=stackLayout;horizontal=1;startSize=30;horizontalStack=0;rounded=1;fontSize=14;fontStyle=0;strokeWidth=2;resizeParent=0;resizeLast=1;shadow=0;dashed=0;align=center;arcSize=4;whiteSpace=wrap;html=1;fillColor=#A9C4EB;" vertex="1" parent="1">
          <mxGeometry x="200" y="600" width="250" height="80" as="geometry" />
        </mxCell>
        <mxCell id="te-CPbT5JowZCKMu-uI0-13" value="&lt;div style=&quot;&quot;&gt;&lt;span style=&quot;font-size: 14px;&quot;&gt;初始化taro项目命令行工具&lt;/span&gt;&lt;/div&gt;" style="align=center;strokeColor=none;fillColor=none;spacingLeft=4;fontSize=12;verticalAlign=middle;resizable=0;rotatable=0;part=1;html=1;" vertex="1" parent="te-CPbT5JowZCKMu-uI0-12">
          <mxGeometry y="30" width="250" height="50" as="geometry" />
        </mxCell>
        <mxCell id="te-CPbT5JowZCKMu-uI0-17" value="" style="shape=singleArrow;whiteSpace=wrap;html=1;arrowWidth=0.4;arrowSize=0.4;fontSize=14;fillColor=#67AB9F;fontStyle=0;startSize=30;rounded=1;strokeWidth=2;shadow=0;dashed=0;arcSize=4;" vertex="1" parent="te-CPbT5JowZCKMu-uI0-12">
          <mxGeometry y="80" width="250" as="geometry" />
        </mxCell>
        <mxCell id="te-CPbT5JowZCKMu-uI0-18" value="" style="shape=singleArrow;whiteSpace=wrap;html=1;arrowWidth=0.4;arrowSize=0.4;fontSize=14;fillColor=#67AB9F;fontStyle=0;startSize=30;rounded=1;strokeWidth=2;shadow=0;dashed=0;arcSize=4;" vertex="1" parent="te-CPbT5JowZCKMu-uI0-12">
          <mxGeometry y="80" width="250" as="geometry" />
        </mxCell>
        <mxCell id="te-CPbT5JowZCKMu-uI0-22" value="" style="shape=singleArrow;whiteSpace=wrap;html=1;arrowWidth=0.4;arrowSize=0.4;fontSize=14;fillColor=#67AB9F;fontStyle=0;startSize=30;rounded=1;strokeWidth=2;shadow=0;dashed=0;arcSize=4;" vertex="1" parent="te-CPbT5JowZCKMu-uI0-12">
          <mxGeometry y="80" width="250" as="geometry" />
        </mxCell>
        <mxCell id="te-CPbT5JowZCKMu-uI0-32" value="" style="edgeStyle=orthogonalEdgeStyle;rounded=0;orthogonalLoop=1;jettySize=auto;html=1;" edge="1" parent="1" source="te-CPbT5JowZCKMu-uI0-14" target="te-CPbT5JowZCKMu-uI0-11">
          <mxGeometry relative="1" as="geometry" />
        </mxCell>
        <mxCell id="te-CPbT5JowZCKMu-uI0-14" value="taro-template-project" style="swimlane;childLayout=stackLayout;horizontal=1;startSize=30;horizontalStack=0;rounded=1;fontSize=14;fontStyle=0;strokeWidth=2;resizeParent=0;resizeLast=1;shadow=0;dashed=0;align=center;arcSize=4;whiteSpace=wrap;html=1;fillColor=#67AB9F;" vertex="1" parent="1">
          <mxGeometry x="200" y="430" width="250" height="80" as="geometry" />
        </mxCell>
        <mxCell id="te-CPbT5JowZCKMu-uI0-15" value="&lt;div style=&quot;&quot;&gt;&lt;span style=&quot;background-color: initial; font-size: 14px;&quot;&gt;taro模版项目&lt;/span&gt;&lt;/div&gt;" style="align=center;strokeColor=none;fillColor=none;spacingLeft=4;fontSize=12;verticalAlign=middle;resizable=0;rotatable=0;part=1;html=1;" vertex="1" parent="te-CPbT5JowZCKMu-uI0-14">
          <mxGeometry y="30" width="250" height="50" as="geometry" />
        </mxCell>
        <mxCell id="te-CPbT5JowZCKMu-uI0-30" style="edgeStyle=orthogonalEdgeStyle;rounded=0;orthogonalLoop=1;jettySize=auto;html=1;exitX=0.75;exitY=1;exitDx=0;exitDy=0;entryX=0.75;entryY=0;entryDx=0;entryDy=0;" edge="1" parent="1" source="te-CPbT5JowZCKMu-uI0-15" target="te-CPbT5JowZCKMu-uI0-12">
          <mxGeometry relative="1" as="geometry" />
        </mxCell>
        <mxCell id="te-CPbT5JowZCKMu-uI0-31" style="edgeStyle=orthogonalEdgeStyle;rounded=0;orthogonalLoop=1;jettySize=auto;html=1;exitX=0.25;exitY=0;exitDx=0;exitDy=0;entryX=0.25;entryY=1;entryDx=0;entryDy=0;" edge="1" parent="1" source="te-CPbT5JowZCKMu-uI0-12" target="te-CPbT5JowZCKMu-uI0-15">
          <mxGeometry relative="1" as="geometry" />
        </mxCell>
        <mxCell id="te-CPbT5JowZCKMu-uI0-33" style="edgeStyle=orthogonalEdgeStyle;rounded=0;orthogonalLoop=1;jettySize=auto;html=1;exitX=1;exitY=0.25;exitDx=0;exitDy=0;entryX=0.5;entryY=1;entryDx=0;entryDy=0;" edge="1" parent="1" source="te-CPbT5JowZCKMu-uI0-15" target="te-CPbT5JowZCKMu-uI0-3">
          <mxGeometry relative="1" as="geometry">
            <Array as="points">
              <mxPoint x="450" y="485" />
              <mxPoint x="605" y="485" />
            </Array>
          </mxGeometry>
        </mxCell>
        <mxCell id="te-CPbT5JowZCKMu-uI0-34" style="edgeStyle=orthogonalEdgeStyle;rounded=0;orthogonalLoop=1;jettySize=auto;html=1;exitX=1;exitY=0.5;exitDx=0;exitDy=0;entryX=0.5;entryY=1;entryDx=0;entryDy=0;" edge="1" parent="1" source="te-CPbT5JowZCKMu-uI0-15" target="te-CPbT5JowZCKMu-uI0-9">
          <mxGeometry relative="1" as="geometry">
            <Array as="points">
              <mxPoint x="885" y="485" />
            </Array>
          </mxGeometry>
        </mxCell>
        <mxCell id="te-CPbT5JowZCKMu-uI0-36" value="" style="edgeStyle=orthogonalEdgeStyle;rounded=0;orthogonalLoop=1;jettySize=auto;html=1;" edge="1" parent="1" source="te-CPbT5JowZCKMu-uI0-35" target="te-CPbT5JowZCKMu-uI0-13">
          <mxGeometry relative="1" as="geometry">
            <Array as="points">
              <mxPoint x="150" y="665" />
              <mxPoint x="150" y="665" />
            </Array>
          </mxGeometry>
        </mxCell>
        <mxCell id="te-CPbT5JowZCKMu-uI0-35" value="user" style="shape=actor;whiteSpace=wrap;html=1;" vertex="1" parent="1">
          <mxGeometry x="50" y="610" width="70" height="110" as="geometry" />
        </mxCell>
        <mxCell id="te-CPbT5JowZCKMu-uI0-37" value="taro-project" style="swimlane;childLayout=stackLayout;horizontal=1;startSize=30;horizontalStack=0;rounded=1;fontSize=14;fontStyle=0;strokeWidth=2;resizeParent=0;resizeLast=1;shadow=0;dashed=0;align=center;arcSize=4;whiteSpace=wrap;html=1;fillColor=#97D077;" vertex="1" parent="1">
          <mxGeometry x="550" y="600" width="250" height="80" as="geometry" />
        </mxCell>
        <mxCell id="te-CPbT5JowZCKMu-uI0-38" value="&lt;div style=&quot;&quot;&gt;&lt;span style=&quot;background-color: initial; font-size: 14px;&quot;&gt;taro项目&lt;/span&gt;&lt;/div&gt;" style="align=center;strokeColor=none;fillColor=none;spacingLeft=4;fontSize=12;verticalAlign=middle;resizable=0;rotatable=0;part=1;html=1;" vertex="1" parent="te-CPbT5JowZCKMu-uI0-37">
          <mxGeometry y="30" width="250" height="50" as="geometry" />
        </mxCell>
        <mxCell id="te-CPbT5JowZCKMu-uI0-39" value="" style="edgeStyle=orthogonalEdgeStyle;rounded=0;orthogonalLoop=1;jettySize=auto;html=1;" edge="1" parent="1" source="te-CPbT5JowZCKMu-uI0-13" target="te-CPbT5JowZCKMu-uI0-38">
          <mxGeometry relative="1" as="geometry" />
        </mxCell>
        <mxCell id="te-CPbT5JowZCKMu-uI0-40" value="@tarojs/taro" style="swimlane;childLayout=stackLayout;horizontal=1;startSize=30;horizontalStack=0;rounded=1;fontSize=14;fontStyle=0;strokeWidth=2;resizeParent=0;resizeLast=1;shadow=0;dashed=0;align=center;arcSize=4;whiteSpace=wrap;html=1;fillColor=#FFB570;" vertex="1" parent="1">
          <mxGeometry x="200" y="130" width="250" height="80" as="geometry" />
        </mxCell>
        <mxCell id="te-CPbT5JowZCKMu-uI0-41" value="&lt;div style=&quot;&quot;&gt;&lt;span style=&quot;background-color: initial; font-size: 14px;&quot;&gt;taro工具包&lt;/span&gt;&lt;/div&gt;" style="align=center;strokeColor=none;fillColor=none;spacingLeft=4;fontSize=12;verticalAlign=middle;resizable=0;rotatable=0;part=1;html=1;" vertex="1" parent="te-CPbT5JowZCKMu-uI0-40">
          <mxGeometry y="30" width="250" height="50" as="geometry" />
        </mxCell>
        <mxCell id="te-CPbT5JowZCKMu-uI0-42" value="@tarojs/components" style="swimlane;childLayout=stackLayout;horizontal=1;startSize=30;horizontalStack=0;rounded=1;fontSize=14;fontStyle=0;strokeWidth=2;resizeParent=0;resizeLast=1;shadow=0;dashed=0;align=center;arcSize=4;whiteSpace=wrap;html=1;fillColor=#FFB570;" vertex="1" parent="1">
          <mxGeometry x="480" y="130" width="250" height="80" as="geometry" />
        </mxCell>
        <mxCell id="te-CPbT5JowZCKMu-uI0-43" value="&lt;div style=&quot;&quot;&gt;&lt;span style=&quot;background-color: initial; font-size: 14px;&quot;&gt;taro组件包&lt;/span&gt;&lt;/div&gt;" style="align=center;strokeColor=none;fillColor=none;spacingLeft=4;fontSize=12;verticalAlign=middle;resizable=0;rotatable=0;part=1;html=1;" vertex="1" parent="te-CPbT5JowZCKMu-uI0-42">
          <mxGeometry y="30" width="250" height="50" as="geometry" />
        </mxCell>
        <mxCell id="te-CPbT5JowZCKMu-uI0-44" value="@plato/components" style="swimlane;childLayout=stackLayout;horizontal=1;startSize=30;horizontalStack=0;rounded=1;fontSize=14;fontStyle=0;strokeWidth=2;resizeParent=0;resizeLast=1;shadow=0;dashed=0;align=center;arcSize=4;whiteSpace=wrap;html=1;fillColor=#A9C4EB;" vertex="1" parent="1">
          <mxGeometry x="1040" y="270" width="250" height="80" as="geometry" />
        </mxCell>
        <mxCell id="te-CPbT5JowZCKMu-uI0-45" value="&lt;div style=&quot;&quot;&gt;&lt;span style=&quot;background-color: initial; font-size: 14px;&quot;&gt;柏拉图组件库&lt;/span&gt;&lt;/div&gt;" style="align=center;strokeColor=none;fillColor=none;spacingLeft=4;fontSize=12;verticalAlign=middle;resizable=0;rotatable=0;part=1;html=1;" vertex="1" parent="te-CPbT5JowZCKMu-uI0-44">
          <mxGeometry y="30" width="250" height="50" as="geometry" />
        </mxCell>
        <mxCell id="te-CPbT5JowZCKMu-uI0-47" style="edgeStyle=orthogonalEdgeStyle;rounded=0;orthogonalLoop=1;jettySize=auto;html=1;exitX=0.5;exitY=1;exitDx=0;exitDy=0;entryX=0.5;entryY=1;entryDx=0;entryDy=0;" edge="1" parent="1" source="te-CPbT5JowZCKMu-uI0-45" target="te-CPbT5JowZCKMu-uI0-9">
          <mxGeometry relative="1" as="geometry">
            <Array as="points">
              <mxPoint x="1165" y="485" />
              <mxPoint x="885" y="485" />
            </Array>
          </mxGeometry>
        </mxCell>
        <mxCell id="te-CPbT5JowZCKMu-uI0-48" value="@tarojs/webpack5-runner" style="swimlane;childLayout=stackLayout;horizontal=1;startSize=30;horizontalStack=0;rounded=1;fontSize=14;fontStyle=0;strokeWidth=2;resizeParent=0;resizeLast=1;shadow=0;dashed=0;align=center;arcSize=4;whiteSpace=wrap;html=1;fillColor=#FFB570;" vertex="1" parent="1">
          <mxGeometry x="770" y="130" width="250" height="80" as="geometry" />
        </mxCell>
        <mxCell id="te-CPbT5JowZCKMu-uI0-49" value="&lt;div style=&quot;&quot;&gt;&lt;span style=&quot;font-size: 14px;&quot;&gt;taro构建环境&lt;/span&gt;&lt;/div&gt;" style="align=center;strokeColor=none;fillColor=none;spacingLeft=4;fontSize=12;verticalAlign=middle;resizable=0;rotatable=0;part=1;html=1;" vertex="1" parent="te-CPbT5JowZCKMu-uI0-48">
          <mxGeometry y="30" width="250" height="50" as="geometry" />
        </mxCell>
        <mxCell id="te-CPbT5JowZCKMu-uI0-52" value="react" style="swimlane;childLayout=stackLayout;horizontal=1;startSize=30;horizontalStack=0;rounded=1;fontSize=14;fontStyle=0;strokeWidth=2;resizeParent=0;resizeLast=1;shadow=0;dashed=0;align=center;arcSize=4;whiteSpace=wrap;html=1;fillColor=#FFB570;" vertex="1" parent="1">
          <mxGeometry x="1050" y="130" width="250" height="80" as="geometry" />
        </mxCell>
        <mxCell id="te-CPbT5JowZCKMu-uI0-53" value="&lt;div style=&quot;&quot;&gt;&lt;span style=&quot;font-size: 14px;&quot;&gt;react库&lt;/span&gt;&lt;/div&gt;" style="align=center;strokeColor=none;fillColor=none;spacingLeft=4;fontSize=12;verticalAlign=middle;resizable=0;rotatable=0;part=1;html=1;" vertex="1" parent="te-CPbT5JowZCKMu-uI0-52">
          <mxGeometry y="30" width="250" height="50" as="geometry" />
        </mxCell>
      </root>
    </mxGraphModel>
  </diagram>
</mxfile>
